<svg width="419" height="420" viewBox="0 0 419 420" fill="none" xmlns="http://www.w3.org/2000/svg">
<g clip-path="url(#clip0_202_15142)">
<path d="M183.64 187.852L106.681 145.524L183.64 102.867V187.852ZM183.64 86.1331L99.1852 133.121V105.263L170.677 66.1503L183.771 73.3034L183.64 86.1331ZM236.67 233.527L312.188 275.035L236.67 316.969V233.527ZM319.815 313.917L247.799 353.883L236.67 347.813V333.507L319.815 287.372V313.917ZM327.344 266.963L198.108 195.792V64.7394L170.71 49.6128L84.7166 96.6331V141.094L44.9443 163.242V257.217L84.7166 279.333V322.482L171.07 370.388L198.108 355.786V226.833L183.64 218.892V317.691L121.445 283.041L113.817 287.011V295.313L183.64 334.294V347.124L171.168 353.686L99.1525 313.753V278.907L134.211 260.794C136.428 262.164 138.971 262.914 141.575 262.967C144.18 263.02 146.751 262.374 149.021 261.095C151.292 259.816 153.181 257.951 154.491 255.695C155.8 253.438 156.484 250.871 156.47 248.26C156.47 244.344 154.918 240.588 152.156 237.819C149.393 235.05 145.647 233.494 141.74 233.494C137.833 233.494 134.086 235.05 131.324 237.819C128.561 240.588 127.009 244.344 127.009 248.26L92.1146 266.963L59.3802 248.785V171.807L92.7693 153.464L222.168 225.652V356.607L247.865 370.453L334.251 322.547V279.333L374.023 257.217V163.242L334.283 141.094V96.6331L248.552 49.7769L222.201 63.9519V194.546L236.67 202.486V103.458L297.883 137.288L305.543 133.088V124.983L236.67 86.8878V72.6144L248.487 66.2487L319.815 105.263V141.652L286.229 159.994C284.308 158.747 282.123 157.968 279.848 157.719C277.572 157.471 275.271 157.759 273.127 158.562C270.983 159.365 269.056 160.659 267.5 162.342C265.945 164.025 264.804 166.049 264.169 168.254C263.534 170.458 263.422 172.78 263.843 175.035C264.264 177.29 265.205 179.415 266.592 181.24C267.979 183.065 269.773 184.54 271.83 185.545C273.887 186.551 276.15 187.06 278.439 187.032C282.266 187.024 285.939 185.517 288.673 182.831C291.407 180.146 292.985 176.496 293.071 172.66L327.998 153.53L359.587 171.675V248.686L327.344 266.963Z" fill="white"/>
</g>
<defs>
<clipPath id="clip0_202_15142">
<rect width="419" height="420" fill="white"/>
</clipPath>
</defs>
</svg>
